<svg id="Layer_1" data-name="Layer 1" xmlns="http://www.w3.org/2000/svg" viewBox="0 0 500 500"><defs><style>.cls-1{fill:#f80;}.cls-2{fill:#ff6400;}.cls-3{fill:#f2f2f2;}</style></defs><title>Artboard 1</title><path class="cls-1" d="M430.2,151.75c-5.14,88.15-20.17,156.44-43.44,197.48-9.94,17.53-24,34.71-41.87,51.07a345.59,345.59,0,0,1-52.65,39.2,431.07,431.07,0,0,1-38,20.72l-3.58,1.65V37L431.94,67.18C432.29,90,432.08,119.51,430.2,151.75Z"/><path class="cls-2" d="M71.12,151.75c5.14,88.15,20.16,156.44,43.43,197.48,9.94,17.53,24,34.71,41.87,51.07a345.59,345.59,0,0,0,52.65,39.2,431.2,431.2,0,0,0,38,20.72l3.58,1.65V37L69.38,67.18C69,90,69.23,119.51,71.12,151.75Z"/><path class="cls-3" d="M210.41,118.21h79.18l-9.25,155H220.4Zm40,172c21.46,0,39.22,18.13,39.22,39.59,0,21.09-17.76,39.22-39.22,39.22s-39.22-18.13-39.22-39.22C211.15,308.39,228.91,290.26,250.37,290.26Z"/></svg>